<svg width="26" height="21" viewBox="0 0 26 21" fill="none" xmlns="http://www.w3.org/2000/svg">
<path d="M26 0.1698L25.1951 2.41089H23.1053L19.3418 15.8574H4.99958L0 3.53144H18.213L17.602 5.77252H3.25867L6.44042 13.6163H17.7374L21.4554 0.1698H26ZM9.20833 16.978C8.31133 16.978 7.58333 17.731 7.58333 18.6588C7.58333 19.5877 8.31133 20.3396 9.20833 20.3396C10.1053 20.3396 10.8333 19.5877 10.8333 18.6588C10.8333 17.731 10.1053 16.978 9.20833 16.978ZM16.6833 9.13416L14.625 16.978C13.728 16.978 13 17.7299 13 18.6588C13 19.5877 13.728 20.3396 14.625 20.3396C15.522 20.3396 16.25 19.5877 16.25 18.6588C16.25 17.731 15.522 16.978 14.625 16.978L16.6833 9.13416Z" fill="#d0d0d0"/>
</svg>
