<svg width="30" height="31" viewBox="0 0 30 31" fill="none" xmlns="http://www.w3.org/2000/svg">
<g clip-path="url(#clip0)">
<path d="M17.4186 29.9332C17.2936 29.9536 17.1682 29.9724 17.0423 29.9895C17.1682 29.9724 17.2936 29.9536 17.4186 29.9332Z" fill="#FFB400"/>
<path d="M17.7186 29.8817C17.6589 29.8927 17.5992 29.9028 17.5394 29.9131C17.5992 29.9028 17.6589 29.8927 17.7186 29.8817Z" fill="#FFB400"/>
<path d="M16.7072 30.0316C16.561 30.0481 16.4138 30.0627 16.2662 30.0751C16.4138 30.0627 16.561 30.0481 16.7072 30.0316Z" fill="#FFB400"/>
<path d="M16.9954 29.9962C16.9252 30.0056 16.8544 30.0143 16.7839 30.0225C16.8544 30.0143 16.9252 30.0056 16.9954 29.9962Z" fill="#FFB400"/>
<path d="M18.127 29.8004C18.0744 29.8116 18.0215 29.8228 17.9686 29.8336C18.0215 29.8228 18.0744 29.8116 18.127 29.8004Z" fill="#FFB400"/>
<path d="M19.1405 29.5475C19.0979 29.5596 19.0553 29.5711 19.0128 29.583C19.0553 29.5711 19.0979 29.5596 19.1405 29.5475Z" fill="#FFB400"/>
<path d="M18.834 29.6316C18.7878 29.6437 18.7413 29.6561 18.6948 29.6678C18.7413 29.6561 18.7878 29.644 18.834 29.6316Z" fill="#FFB400"/>
<path d="M18.433 29.7323C18.384 29.7437 18.3346 29.7545 18.2852 29.7655C18.3346 29.7545 18.384 29.7437 18.433 29.7323Z" fill="#FFB400"/>
<path d="M16.2614 30.0758C16.1824 30.0824 16.1034 30.0884 16.0242 30.0937C16.1034 30.0884 16.1824 30.0824 16.2614 30.0758Z" fill="#FFB400"/>
<path d="M30 15.0647C30 6.74595 23.283 0 15 0C6.717 0 0 6.74595 0 15.0647C0 23.3834 6.717 30.1293 15 30.1293C15.0881 30.1293 15.1758 30.1275 15.2637 30.1259V18.3987H12.041V14.6268H15.2637V11.8511C15.2637 8.63202 17.2204 6.87996 20.0796 6.87996C21.4487 6.87996 22.6257 6.98248 22.9688 7.02823V10.3926H20.9972C19.4417 10.3926 19.1405 11.1351 19.1405 12.2244V14.6268H22.8598L22.375 18.3987H19.1405V29.5473C25.4102 27.7421 30 21.9409 30 15.0647Z" fill="#FFB400"/>
<path d="M15.9911 30.0957C15.835 30.1058 15.6782 30.1138 15.5209 30.119C15.6782 30.1138 15.835 30.1058 15.9911 30.0957Z" fill="#FFB400"/>
<path d="M15.5129 30.1196C15.4301 30.1224 15.347 30.1244 15.2639 30.1258C15.347 30.1244 15.4301 30.1224 15.5129 30.1196Z" fill="#FFB400"/>
</g>
<defs>
<clipPath id="clip0">
<rect width="30" height="30.1293" fill="white"/>
</clipPath>
</defs>
</svg>
