<svg width="22" height="21" viewBox="0 0 22 21" fill="none" xmlns="http://www.w3.org/2000/svg">
<path d="M11 7.71418C11.2145 6.68735 12.4181 2.00335 15.9335 2.00335C17.9685 2.00335 20.1667 3.42533 20.1667 6.59017C20.1667 10.1722 16.8419 14.3556 11 18.1686C5.15808 14.3556 1.83333 10.1722 1.83333 6.59017C1.83333 3.39599 4.00492 2.00152 6.02892 2.00152C9.625 2.00152 10.7452 6.7011 11 7.71418ZM0 6.59017C0 10.3198 2.805 15.2825 11 20.3396C19.195 15.2825 22 10.3198 22 6.59017C22 -0.709494 13.156 -1.68682 11 3.16404C8.85683 -1.66023 0 -0.750751 0 6.59017Z" fill="#d0d0d0"/>
</svg>
