<svg width="30" height="31" viewBox="0 0 30 31" fill="none" xmlns="http://www.w3.org/2000/svg">
<g clip-path="url(#clip0)">
<path d="M15.0048 7.32898C10.7511 7.32898 7.30731 10.7913 7.30731 15.0597C7.30731 19.3317 10.7548 22.7903 15.0048 22.7903C19.2586 22.7903 22.7023 19.328 22.7023 15.0597C22.7023 10.7876 19.2548 7.32898 15.0048 7.32898ZM15.0048 20.0774C12.2436 20.0774 10.0086 17.8316 10.0086 15.0597C10.0086 12.2878 12.2448 10.0419 15.0048 10.0419C17.7648 10.0419 20.0011 12.2878 20.0011 15.0597C20.0023 17.8316 17.7661 20.0774 15.0048 20.0774Z" fill="#FFB400"/>
<path d="M21.1849 0.0958602C18.4249 -0.0334448 11.5886 -0.0271678 8.82611 0.0958602C6.39861 0.210101 4.25736 0.798877 2.53111 2.53257C-0.353893 5.43 0.0148568 9.33426 0.0148568 15.0601C0.0148568 20.9202 -0.310143 24.7341 2.53111 27.5876C5.42736 30.4951 9.37111 30.1147 15.0049 30.1147C20.7849 30.1147 22.7799 30.1185 24.8236 29.3238C27.6024 28.2404 29.6999 25.7459 29.9049 21.2655C30.0349 18.4923 30.0274 11.6279 29.9049 8.85345C29.6574 3.5645 26.8311 0.356981 21.1849 0.0958602ZM25.5536 25.6706C23.6624 27.57 21.0386 27.4005 14.9686 27.4005C8.71861 27.4005 6.21236 27.4934 4.38361 25.6518C2.27736 23.5465 2.65861 20.1657 2.65861 15.04C2.65861 8.10398 1.94986 3.10879 8.88111 2.75226C10.4736 2.69577 10.9424 2.67694 14.9511 2.67694L15.0074 2.7146C21.6686 2.7146 26.8949 2.01409 27.2086 8.97396C27.2799 10.562 27.2961 11.0391 27.2961 15.0588C27.2949 21.263 27.4124 23.7951 25.5536 25.6706Z" fill="#FFB400"/>
<path d="M23.0075 8.83041C24.0009 8.83041 24.8062 8.02161 24.8062 7.02391C24.8062 6.02621 24.0009 5.21741 23.0075 5.21741C22.0141 5.21741 21.2087 6.02621 21.2087 7.02391C21.2087 8.02161 22.0141 8.83041 23.0075 8.83041Z" fill="#FFB400"/>
</g>
<defs>
<clipPath id="clip0">
<rect width="30" height="30.1293" fill="white"/>
</clipPath>
</defs>
</svg>
