<svg width="30" height="30" viewBox="0 0 30 30" fill="none" xmlns="http://www.w3.org/2000/svg">
<path d="M15 0C6.75 0 0 6.75 0 15C0 23.25 6.75 30 15 30C23.25 30 30 23.25 30 15C30 6.75 23.25 0 15 0ZM22.35 9.15L19.8 21.45C19.65 22.35 19.05 22.5 18.45 22.05L14.55 19.05C13.65 19.95 12.75 20.7 12.6 21C12.3 21.15 12.15 21.45 11.85 21.45C11.4 21.45 11.4 21.15 11.25 20.85L9.9 16.35L5.85 15C4.95 14.7 4.95 14.1 6 13.65L21.3 7.8C21.9 7.65 22.65 7.95 22.35 9.15ZM18.75 10.5L10.2 15.9L11.55 20.4L11.85 17.4L19.2 10.8C19.65 10.35 19.35 10.35 18.75 10.5Z" fill="#FFB400"/>
</svg>
