<svg width="30" height="31" viewBox="0 0 30 31" fill="none" xmlns="http://www.w3.org/2000/svg">
<path d="M24.8938 16.3552C24.4088 15.7401 24.5475 15.4664 24.8938 14.9166C24.9 14.9103 28.9037 9.35393 29.3162 7.4696L29.3188 7.46834C29.5238 6.78164 29.3188 6.27698 28.3275 6.27698H25.0475C24.2125 6.27698 23.8275 6.71009 23.6213 7.19467C23.6213 7.19467 21.9513 11.2094 19.5887 13.8118C18.8263 14.5638 18.4738 14.8048 18.0575 14.8048C17.8525 14.8048 17.5338 14.5638 17.5338 13.8771V7.46834C17.5338 6.64481 17.3 6.27698 16.6087 6.27698H11.4513C10.9275 6.27698 10.6163 6.66113 10.6163 7.01891C10.6163 7.79976 11.7975 7.97928 11.92 10.1762V14.9429C11.92 15.9874 11.7312 16.1795 11.3125 16.1795C10.1975 16.1795 7.49125 12.1484 5.8875 7.53488C5.56375 6.63978 5.2475 6.27823 4.40625 6.27823H1.125C0.18875 6.27823 0 6.71134 0 7.19592C0 8.0521 1.115 12.3091 5.185 17.9333C7.8975 21.7722 11.7175 23.8524 15.1925 23.8524C17.2812 23.8524 17.5363 23.3904 17.5363 22.5958C17.5363 18.9275 17.3475 18.581 18.3937 18.581C18.8787 18.581 19.7137 18.8221 21.6637 20.6738C23.8925 22.8694 24.2588 23.8524 25.5063 23.8524H28.7862C29.7212 23.8524 30.195 23.3904 29.9225 22.479C29.2987 20.562 25.0838 16.6189 24.8938 16.3552Z" fill="#FFB400"/>
</svg>
