<svg width="30" height="31" viewBox="0 0 30 31" fill="none" xmlns="http://www.w3.org/2000/svg">
<g clip-path="url(#clip0)">
<path d="M13.1317 17.887L18.011 15.0646L13.1317 12.2423V17.887Z" fill="#FFB400"/>
<path d="M15 0C6.717 0 0 6.74595 0 15.0647C0 23.3834 6.717 30.1293 15 30.1293C23.283 30.1293 30 23.3834 30 15.0647C30 6.74595 23.283 0 15 0ZM24.3727 15.0801C24.3727 15.0801 24.3727 18.1352 23.9868 19.6085C23.7705 20.4148 23.1374 21.0507 22.3345 21.2677C20.8676 21.6554 15 21.6554 15 21.6554C15 21.6554 9.14772 21.6554 7.66548 21.2523C6.86256 21.0353 6.22948 20.3992 6.01318 19.5928C5.62706 18.1352 5.62706 15.0647 5.62706 15.0647C5.62706 15.0647 5.62706 12.0097 6.01318 10.5365C6.22925 9.7301 6.8779 9.07865 7.66548 8.86166C9.13239 8.47387 15 8.47387 15 8.47387C15 8.47387 20.8676 8.47387 22.3345 8.87706C23.1374 9.09405 23.7705 9.7301 23.9868 10.5365C24.3883 12.0097 24.3727 15.0801 24.3727 15.0801Z" fill="#FFB400"/>
</g>
<defs>
<clipPath id="clip0">
<rect width="30" height="30.1293" fill="white"/>
</clipPath>
</defs>
</svg>
